<svg fill="none" height="400" viewBox="0 0 400 400" width="400" xmlns="http://www.w3.org/2000/svg"><g stroke="#000" stroke-linecap="round" stroke-linejoin="round" stroke-opacity=".9" stroke-width="16"><path d="m252.644 56.915c42.698-18.4668 68.046 56.448 19.007 66.607-40.1 8.31-54.806-45.5066-24.507-65.4676"/><path d="m330.482 265.712c11.429 11.685 15.485 29.852-.148 45.529-24.357 24.43-58.5 1.408-58.578-26.204"/><path d="m192.293 285.199c1.057 8.469-1.691 17.608-10.166 26.03-22.551 22.412-53.406 4.934-58.472-19.417"/><path d="m231 133c-24.388 28.128-36.505 46.606-44 76"/><path d="m231.268 139c-1.19 35.935-.426 61.382 46.732 42.706"/><path d="m270.454 181.27c7.194 22.477 22.496 52.909 25.982 76.648"/><path d="m198.698 209.851c-18.898 1.268-51.66 9.576-64.782 24.259-7.791 8.715-33.219 36.604-25.81 51.336 3.964 7.893 55.396 4.216 62.17 3.254 30.442-4.326 70.415.962 100.061-3.254 6.427-.914-2.917-8.248 5.528-8.248 12.604 0 74.199-14.302 63.501-27.075-24.807-29.6-81.973-5.672-73.269 24.623"/><path d="m200.303 212.449c7.597 17.437 13.754 62.127 14.29 66.254"/><path d="m200.303 208.553c54.742-.244 57.029 25.374 22.991 66.253"/><path d="m169.124 213.748c-27.1 17.02-69.5173 7.711-101.3301 18.188"/><path d="m60 128.007c8.4342 15.569 0 96.327 3.5625 100.031"/><path d="m63.8965 128.233c41.7935-4.958 68.9605-6.013 72.1175 0 3.156 6.014 3.156 43.425-5.447 90.712"/></g></svg>